solid OpenSCAD_Model
  facet normal -1 0 0
    outer loop
      vertex 6 58 28
      vertex 6 48 31
      vertex 6 58 31
    endloop
  endfacet
  facet normal -1 0 0
    outer loop
      vertex 6 0 28
      vertex 6 48 31
      vertex 6 58 28
    endloop
  endfacet
  facet normal -1 0 0
    outer loop
      vertex 6 0 42
      vertex 6 48 31
      vertex 6 0 28
    endloop
  endfacet
  facet normal -1 0 0
    outer loop
      vertex 6 48 31
      vertex 6 0 42
      vertex 6 48 42
    endloop
  endfacet
  facet normal 0 0 1
    outer loop
      vertex 42 48 42
      vertex 40 30 42
      vertex 42 0 42
    endloop
  endfacet
  facet normal 0 0 1
    outer loop
      vertex 42 48 42
      vertex 39.9684 31.0046 42
      vertex 40 30 42
    endloop
  endfacet
  facet normal 0 0 1
    outer loop
      vertex 42 48 42
      vertex 39.8738 32.0053 42
      vertex 39.9684 31.0046 42
    endloop
  endfacet
  facet normal 0 0 1
    outer loop
      vertex 42 48 42
      vertex 39.7166 32.9981 42
      vertex 39.8738 32.0053 42
    endloop
  endfacet
  facet normal 0 0 1
    outer loop
      vertex 42 48 42
      vertex 39.4973 33.979 42
      vertex 39.7166 32.9981 42
    endloop
  endfacet
  facet normal 0 0 1
    outer loop
      vertex 42 48 42
      vertex 39.2169 34.9443 42
      vertex 39.4973 33.979 42
    endloop
  endfacet
  facet normal 0 0 1
    outer loop
      vertex 42 48 42
      vertex 38.8764 35.89 42
      vertex 39.2169 34.9443 42
    endloop
  endfacet
  facet normal 0 0 1
    outer loop
      vertex 42 48 42
      vertex 38.4772 36.8125 42
      vertex 38.8764 35.89 42
    endloop
  endfacet
  facet normal 0 0 1
    outer loop
      vertex 42 48 42
      vertex 38.0209 37.7081 42
      vertex 38.4772 36.8125 42
    endloop
  endfacet
  facet normal 0 0 1
    outer loop
      vertex 42 48 42
      vertex 37.5092 38.5732 42
      vertex 38.0209 37.7081 42
    endloop
  endfacet
  facet normal 0 0 1
    outer loop
      vertex 42 48 42
      vertex 36.9443 39.4046 42
      vertex 37.5092 38.5732 42
    endloop
  endfacet
  facet normal 0 0 1
    outer loop
      vertex 42 48 42
      vertex 36.3282 40.1988 42
      vertex 36.9443 39.4046 42
    endloop
  endfacet
  facet normal 0 0 1
    outer loop
      vertex 42 48 42
      vertex 35.6635 40.9528 42
      vertex 36.3282 40.1988 42
    endloop
  endfacet
  facet normal 0 0 1
    outer loop
      vertex 42 48 42
      vertex 34.9528 41.6635 42
      vertex 35.6635 40.9528 42
    endloop
  endfacet
  facet normal 0 0 1
    outer loop
      vertex 42 48 42
      vertex 34.1988 42.3282 42
      vertex 34.9528 41.6635 42
    endloop
  endfacet
  facet normal 0 0 1
    outer loop
      vertex 42 48 42
      vertex 33.4046 42.9443 42
      vertex 34.1988 42.3282 42
    endloop
  endfacet
  facet normal 0 0 1
    outer loop
      vertex 42 48 42
      vertex 32.5732 43.5092 42
      vertex 33.4046 42.9443 42
    endloop
  endfacet
  facet normal 0 0 1
    outer loop
      vertex 42 48 42
      vertex 31.7081 44.0209 42
      vertex 32.5732 43.5092 42
    endloop
  endfacet
  facet normal 0 0 1
    outer loop
      vertex 42 48 42
      vertex 30.8125 44.4772 42
      vertex 31.7081 44.0209 42
    endloop
  endfacet
  facet normal 0 0 1
    outer loop
      vertex 42 48 42
      vertex 29.89 44.8764 42
      vertex 30.8125 44.4772 42
    endloop
  endfacet
  facet normal 0 0 1
    outer loop
      vertex 42 48 42
      vertex 28.9443 45.2169 42
      vertex 29.89 44.8764 42
    endloop
  endfacet
  facet normal 0 0 1
    outer loop
      vertex 42 48 42
      vertex 27.979 45.4973 42
      vertex 28.9443 45.2169 42
    endloop
  endfacet
  facet normal 0 0 1
    outer loop
      vertex 42 48 42
      vertex 26.9981 45.7166 42
      vertex 27.979 45.4973 42
    endloop
  endfacet
  facet normal 0 0 1
    outer loop
      vertex 42 48 42
      vertex 26.0053 45.8738 42
      vertex 26.9981 45.7166 42
    endloop
  endfacet
  facet normal 0 0 1
    outer loop
      vertex 42 48 42
      vertex 25.0046 45.9684 42
      vertex 26.0053 45.8738 42
    endloop
  endfacet
  facet normal 0 0 1
    outer loop
      vertex 42 48 42
      vertex 24 46 42
      vertex 25.0046 45.9684 42
    endloop
  endfacet
  facet normal -0 0 1
    outer loop
      vertex 6 48 42
      vertex 24 46 42
      vertex 42 48 42
    endloop
  endfacet
  facet normal 0 0 1
    outer loop
      vertex 24 46 42
      vertex 6 48 42
      vertex 22.9953 45.9684 42
    endloop
  endfacet
  facet normal 0 0 1
    outer loop
      vertex 22.9953 45.9684 42
      vertex 6 48 42
      vertex 21.9947 45.8738 42
    endloop
  endfacet
  facet normal 0 0 1
    outer loop
      vertex 6 48 42
      vertex 21.0019 45.7166 42
      vertex 21.9947 45.8738 42
    endloop
  endfacet
  facet normal 0 0 1
    outer loop
      vertex 6 48 42
      vertex 20.021 45.4973 42
      vertex 21.0019 45.7166 42
    endloop
  endfacet
  facet normal 0 0 1
    outer loop
      vertex 6 48 42
      vertex 19.0557 45.2169 42
      vertex 20.021 45.4973 42
    endloop
  endfacet
  facet normal 0 0 1
    outer loop
      vertex 6 48 42
      vertex 18.11 44.8764 42
      vertex 19.0557 45.2169 42
    endloop
  endfacet
  facet normal 0 0 1
    outer loop
      vertex 6 48 42
      vertex 17.1875 44.4772 42
      vertex 18.11 44.8764 42
    endloop
  endfacet
  facet normal 0 0 1
    outer loop
      vertex 6 48 42
      vertex 16.2919 44.0209 42
      vertex 17.1875 44.4772 42
    endloop
  endfacet
  facet normal 0 0 1
    outer loop
      vertex 6 48 42
      vertex 15.4268 43.5092 42
      vertex 16.2919 44.0209 42
    endloop
  endfacet
  facet normal 0 0 1
    outer loop
      vertex 6 48 42
      vertex 14.5954 42.9443 42
      vertex 15.4268 43.5092 42
    endloop
  endfacet
  facet normal 0 0 1
    outer loop
      vertex 6 48 42
      vertex 13.8012 42.3282 42
      vertex 14.5954 42.9443 42
    endloop
  endfacet
  facet normal 0 0 1
    outer loop
      vertex 6 48 42
      vertex 13.0472 41.6635 42
      vertex 13.8012 42.3282 42
    endloop
  endfacet
  facet normal 0 0 1
    outer loop
      vertex 6 48 42
      vertex 12.3365 40.9528 42
      vertex 13.0472 41.6635 42
    endloop
  endfacet
  facet normal 0 0 1
    outer loop
      vertex 6 48 42
      vertex 11.6718 40.1988 42
      vertex 12.3365 40.9528 42
    endloop
  endfacet
  facet normal 0 0 1
    outer loop
      vertex 6 48 42
      vertex 11.0557 39.4046 42
      vertex 11.6718 40.1988 42
    endloop
  endfacet
  facet normal 0 0 1
    outer loop
      vertex 6 48 42
      vertex 10.4908 38.5732 42
      vertex 11.0557 39.4046 42
    endloop
  endfacet
  facet normal 0 0 1
    outer loop
      vertex 6 48 42
      vertex 9.97909 37.7081 42
      vertex 10.4908 38.5732 42
    endloop
  endfacet
  facet normal 0 0 1
    outer loop
      vertex 6 48 42
      vertex 9.52277 36.8125 42
      vertex 9.97909 37.7081 42
    endloop
  endfacet
  facet normal 0 0 1
    outer loop
      vertex 6 48 42
      vertex 9.12358 35.89 42
      vertex 9.52277 36.8125 42
    endloop
  endfacet
  facet normal 0 0 1
    outer loop
      vertex 6 48 42
      vertex 8.7831 34.9443 42
      vertex 9.12358 35.89 42
    endloop
  endfacet
  facet normal 0 0 1
    outer loop
      vertex 6 48 42
      vertex 8.50267 33.979 42
      vertex 8.7831 34.9443 42
    endloop
  endfacet
  facet normal 0 0 1
    outer loop
      vertex 6 48 42
      vertex 8.2834 32.9981 42
      vertex 8.50267 33.979 42
    endloop
  endfacet
  facet normal 0 0 1
    outer loop
      vertex 6 48 42
      vertex 8.12616 32.0053 42
      vertex 8.2834 32.9981 42
    endloop
  endfacet
  facet normal 0 0 1
    outer loop
      vertex 6 48 42
      vertex 8.03157 31.0046 42
      vertex 8.12616 32.0053 42
    endloop
  endfacet
  facet normal 0 0 1
    outer loop
      vertex 6 48 42
      vertex 8 30 42
      vertex 8.03157 31.0046 42
    endloop
  endfacet
  facet normal 0 0 1
    outer loop
      vertex 6 0 42
      vertex 8 30 42
      vertex 6 48 42
    endloop
  endfacet
  facet normal 0 0 1
    outer loop
      vertex 8 30 42
      vertex 6 0 42
      vertex 8 0 42
    endloop
  endfacet
  facet normal 0 0 1
    outer loop
      vertex 42 0 42
      vertex 40 30 42
      vertex 40 0 42
    endloop
  endfacet
  facet normal 1 0 0
    outer loop
      vertex 42 48 42
      vertex 42 0 42
      vertex 42 48 31
    endloop
  endfacet
  facet normal 1 -0 0
    outer loop
      vertex 42 48 31
      vertex 42 58 28
      vertex 42 58 31
    endloop
  endfacet
  facet normal 1 0 0
    outer loop
      vertex 42 0 28
      vertex 42 48 31
      vertex 42 0 42
    endloop
  endfacet
  facet normal 1 0 0
    outer loop
      vertex 42 48 31
      vertex 42 0 28
      vertex 42 58 28
    endloop
  endfacet
  facet normal 0 0 -1
    outer loop
      vertex 6 0 28
      vertex 42 58 28
      vertex 42 0 28
    endloop
  endfacet
  facet normal -0 0 -1
    outer loop
      vertex 42 58 28
      vertex 6 0 28
      vertex 6 58 28
    endloop
  endfacet
  facet normal 0 -1 0
    outer loop
      vertex 6 0 42
      vertex 8 0 31
      vertex 8 0 42
    endloop
  endfacet
  facet normal 0 -1 -0
    outer loop
      vertex 8 0 31
      vertex 6 0 28
      vertex 40 0 31
    endloop
  endfacet
  facet normal 0 -1 0
    outer loop
      vertex 6 0 28
      vertex 8 0 31
      vertex 6 0 42
    endloop
  endfacet
  facet normal 0 -1 0
    outer loop
      vertex 40 0 31
      vertex 42 0 42
      vertex 40 0 42
    endloop
  endfacet
  facet normal 0 -1 0
    outer loop
      vertex 40 0 31
      vertex 42 0 28
      vertex 42 0 42
    endloop
  endfacet
  facet normal 0 -1 0
    outer loop
      vertex 42 0 28
      vertex 40 0 31
      vertex 6 0 28
    endloop
  endfacet
  facet normal 0 1 -0
    outer loop
      vertex 42 58 28
      vertex 6 58 31
      vertex 42 58 31
    endloop
  endfacet
  facet normal 0 1 0
    outer loop
      vertex 6 58 31
      vertex 42 58 28
      vertex 6 58 28
    endloop
  endfacet
  facet normal 1 -0 0
    outer loop
      vertex 8 0 42
      vertex 8 30 31
      vertex 8 30 42
    endloop
  endfacet
  facet normal 1 0 0
    outer loop
      vertex 8 30 31
      vertex 8 0 42
      vertex 8 0 31
    endloop
  endfacet
  facet normal -1 0 0
    outer loop
      vertex 40 0 31
      vertex 40 30 42
      vertex 40 30 31
    endloop
  endfacet
  facet normal -1 -0 0
    outer loop
      vertex 40 30 42
      vertex 40 0 31
      vertex 40 0 42
    endloop
  endfacet
  facet normal 0 0 1
    outer loop
      vertex 8 30 31
      vertex 40 30 31
      vertex 39.9684 31.0046 31
    endloop
  endfacet
  facet normal 0 0 1
    outer loop
      vertex 8 30 31
      vertex 39.9684 31.0046 31
      vertex 39.8738 32.0053 31
    endloop
  endfacet
  facet normal 0 0 1
    outer loop
      vertex 8 30 31
      vertex 39.8738 32.0053 31
      vertex 39.7166 32.9981 31
    endloop
  endfacet
  facet normal 0 0 1
    outer loop
      vertex 8 30 31
      vertex 39.7166 32.9981 31
      vertex 39.4973 33.979 31
    endloop
  endfacet
  facet normal 0 0 1
    outer loop
      vertex 8 30 31
      vertex 39.4973 33.979 31
      vertex 39.2169 34.9443 31
    endloop
  endfacet
  facet normal 0 0 1
    outer loop
      vertex 8 30 31
      vertex 39.2169 34.9443 31
      vertex 38.8764 35.89 31
    endloop
  endfacet
  facet normal 0 0 1
    outer loop
      vertex 8 30 31
      vertex 38.8764 35.89 31
      vertex 38.4772 36.8125 31
    endloop
  endfacet
  facet normal 0 0 1
    outer loop
      vertex 8 30 31
      vertex 38.4772 36.8125 31
      vertex 38.0209 37.7081 31
    endloop
  endfacet
  facet normal 0 0 1
    outer loop
      vertex 8 30 31
      vertex 38.0209 37.7081 31
      vertex 37.5092 38.5732 31
    endloop
  endfacet
  facet normal 0 0 1
    outer loop
      vertex 8 30 31
      vertex 37.5092 38.5732 31
      vertex 36.9443 39.4046 31
    endloop
  endfacet
  facet normal 0 0 1
    outer loop
      vertex 8 30 31
      vertex 36.9443 39.4046 31
      vertex 36.3282 40.1988 31
    endloop
  endfacet
  facet normal 0 0 1
    outer loop
      vertex 8 30 31
      vertex 36.3282 40.1988 31
      vertex 35.6635 40.9528 31
    endloop
  endfacet
  facet normal 0 0 1
    outer loop
      vertex 8 30 31
      vertex 35.6635 40.9528 31
      vertex 34.9528 41.6635 31
    endloop
  endfacet
  facet normal 0 0 1
    outer loop
      vertex 8 30 31
      vertex 34.9528 41.6635 31
      vertex 34.1988 42.3282 31
    endloop
  endfacet
  facet normal 0 0 1
    outer loop
      vertex 8 30 31
      vertex 34.1988 42.3282 31
      vertex 33.4046 42.9443 31
    endloop
  endfacet
  facet normal 0 0 1
    outer loop
      vertex 8 30 31
      vertex 33.4046 42.9443 31
      vertex 32.5732 43.5092 31
    endloop
  endfacet
  facet normal 0 0 1
    outer loop
      vertex 8 30 31
      vertex 32.5732 43.5092 31
      vertex 31.7081 44.0209 31
    endloop
  endfacet
  facet normal 0 0 1
    outer loop
      vertex 8 30 31
      vertex 31.7081 44.0209 31
      vertex 30.8125 44.4772 31
    endloop
  endfacet
  facet normal 0 0 1
    outer loop
      vertex 8 30 31
      vertex 30.8125 44.4772 31
      vertex 29.89 44.8764 31
    endloop
  endfacet
  facet normal 0 0 1
    outer loop
      vertex 8 30 31
      vertex 29.89 44.8764 31
      vertex 28.9443 45.2169 31
    endloop
  endfacet
  facet normal 0 0 1
    outer loop
      vertex 8 30 31
      vertex 28.9443 45.2169 31
      vertex 27.979 45.4973 31
    endloop
  endfacet
  facet normal 0 0 1
    outer loop
      vertex 8 30 31
      vertex 27.979 45.4973 31
      vertex 26.9981 45.7166 31
    endloop
  endfacet
  facet normal 0 0 1
    outer loop
      vertex 8 30 31
      vertex 26.9981 45.7166 31
      vertex 26.0053 45.8738 31
    endloop
  endfacet
  facet normal 0 0 1
    outer loop
      vertex 8 30 31
      vertex 26.0053 45.8738 31
      vertex 25.0046 45.9684 31
    endloop
  endfacet
  facet normal 0 0 1
    outer loop
      vertex 8 30 31
      vertex 25.0046 45.9684 31
      vertex 24 46 31
    endloop
  endfacet
  facet normal 0 0 1
    outer loop
      vertex 8 30 31
      vertex 24 46 31
      vertex 22.9953 45.9684 31
    endloop
  endfacet
  facet normal 0 0 1
    outer loop
      vertex 8 30 31
      vertex 22.9953 45.9684 31
      vertex 21.9947 45.8738 31
    endloop
  endfacet
  facet normal 0 0 1
    outer loop
      vertex 8 30 31
      vertex 21.9947 45.8738 31
      vertex 21.0019 45.7166 31
    endloop
  endfacet
  facet normal 0 0 1
    outer loop
      vertex 8 30 31
      vertex 21.0019 45.7166 31
      vertex 20.021 45.4973 31
    endloop
  endfacet
  facet normal 0 0 1
    outer loop
      vertex 8 30 31
      vertex 20.021 45.4973 31
      vertex 19.0557 45.2169 31
    endloop
  endfacet
  facet normal 0 0 1
    outer loop
      vertex 8 30 31
      vertex 19.0557 45.2169 31
      vertex 18.11 44.8764 31
    endloop
  endfacet
  facet normal 0 0 1
    outer loop
      vertex 8 30 31
      vertex 18.11 44.8764 31
      vertex 17.1875 44.4772 31
    endloop
  endfacet
  facet normal 0 0 1
    outer loop
      vertex 8 30 31
      vertex 17.1875 44.4772 31
      vertex 16.2919 44.0209 31
    endloop
  endfacet
  facet normal 0 0 1
    outer loop
      vertex 8 30 31
      vertex 16.2919 44.0209 31
      vertex 15.4268 43.5092 31
    endloop
  endfacet
  facet normal 0 0 1
    outer loop
      vertex 8 30 31
      vertex 15.4268 43.5092 31
      vertex 14.5954 42.9443 31
    endloop
  endfacet
  facet normal 0 0 1
    outer loop
      vertex 8 30 31
      vertex 14.5954 42.9443 31
      vertex 13.8012 42.3282 31
    endloop
  endfacet
  facet normal 0 0 1
    outer loop
      vertex 8 30 31
      vertex 13.8012 42.3282 31
      vertex 13.0472 41.6635 31
    endloop
  endfacet
  facet normal 0 0 1
    outer loop
      vertex 8 30 31
      vertex 13.0472 41.6635 31
      vertex 12.3365 40.9528 31
    endloop
  endfacet
  facet normal 0 0 1
    outer loop
      vertex 8 30 31
      vertex 12.3365 40.9528 31
      vertex 11.6718 40.1988 31
    endloop
  endfacet
  facet normal 0 0 1
    outer loop
      vertex 8 30 31
      vertex 11.6718 40.1988 31
      vertex 11.0557 39.4046 31
    endloop
  endfacet
  facet normal 0 0 1
    outer loop
      vertex 8 30 31
      vertex 11.0557 39.4046 31
      vertex 10.4908 38.5732 31
    endloop
  endfacet
  facet normal 0 0 1
    outer loop
      vertex 8 30 31
      vertex 10.4908 38.5732 31
      vertex 9.97909 37.7081 31
    endloop
  endfacet
  facet normal 0 0 1
    outer loop
      vertex 8 30 31
      vertex 9.97909 37.7081 31
      vertex 9.52277 36.8125 31
    endloop
  endfacet
  facet normal 0 0 1
    outer loop
      vertex 8 30 31
      vertex 9.52277 36.8125 31
      vertex 9.12358 35.89 31
    endloop
  endfacet
  facet normal 0 0 1
    outer loop
      vertex 8 30 31
      vertex 9.12358 35.89 31
      vertex 8.7831 34.9443 31
    endloop
  endfacet
  facet normal 0 0 1
    outer loop
      vertex 8 30 31
      vertex 8.7831 34.9443 31
      vertex 8.50267 33.979 31
    endloop
  endfacet
  facet normal 0 0 1
    outer loop
      vertex 8 30 31
      vertex 8.50267 33.979 31
      vertex 8.2834 32.9981 31
    endloop
  endfacet
  facet normal 0 0 1
    outer loop
      vertex 8 30 31
      vertex 8.2834 32.9981 31
      vertex 8.12616 32.0053 31
    endloop
  endfacet
  facet normal 0 0 1
    outer loop
      vertex 8 30 31
      vertex 8.12616 32.0053 31
      vertex 8.03157 31.0046 31
    endloop
  endfacet
  facet normal 0 0 1
    outer loop
      vertex 40 30 31
      vertex 8 30 31
      vertex 40 0 31
    endloop
  endfacet
  facet normal 0 0 1
    outer loop
      vertex 40 0 31
      vertex 8 30 31
      vertex 8 0 31
    endloop
  endfacet
  facet normal -0.987688 -0.156434 0
    outer loop
      vertex 39.8738 32.0053 31
      vertex 39.7166 32.9981 42
      vertex 39.7166 32.9981 31
    endloop
  endfacet
  facet normal -0.987688 -0.156434 0
    outer loop
      vertex 39.7166 32.9981 42
      vertex 39.8738 32.0053 31
      vertex 39.8738 32.0053 42
    endloop
  endfacet
  facet normal -0.999507 -0.0314127 0
    outer loop
      vertex 40 30 31
      vertex 39.9684 31.0046 42
      vertex 39.9684 31.0046 31
    endloop
  endfacet
  facet normal -0.999507 -0.0314127 0
    outer loop
      vertex 39.9684 31.0046 42
      vertex 40 30 31
      vertex 40 30 42
    endloop
  endfacet
  facet normal 0.0314126 -0.999507 0
    outer loop
      vertex 22.9953 45.9684 31
      vertex 24 46 42
      vertex 22.9953 45.9684 42
    endloop
  endfacet
  facet normal 0.0314126 -0.999507 0
    outer loop
      vertex 24 46 42
      vertex 22.9953 45.9684 31
      vertex 24 46 31
    endloop
  endfacet
  facet normal -0.707107 -0.707107 0
    outer loop
      vertex 35.6635 40.9528 31
      vertex 34.9528 41.6635 42
      vertex 34.9528 41.6635 31
    endloop
  endfacet
  facet normal -0.707107 -0.707107 0
    outer loop
      vertex 34.9528 41.6635 42
      vertex 35.6635 40.9528 31
      vertex 35.6635 40.9528 42
    endloop
  endfacet
  facet normal 0.707108 -0.707106 0
    outer loop
      vertex 12.3365 40.9528 42
      vertex 13.0472 41.6635 31
      vertex 13.0472 41.6635 42
    endloop
  endfacet
  facet normal 0.707108 -0.707106 0
    outer loop
      vertex 13.0472 41.6635 31
      vertex 12.3365 40.9528 42
      vertex 12.3365 40.9528 31
    endloop
  endfacet
  facet normal -0.917756 -0.397146 0
    outer loop
      vertex 38.8764 35.89 31
      vertex 38.4772 36.8125 42
      vertex 38.4772 36.8125 31
    endloop
  endfacet
  facet normal -0.917756 -0.397146 0
    outer loop
      vertex 38.4772 36.8125 42
      vertex 38.8764 35.89 31
      vertex 38.8764 35.89 42
    endloop
  endfacet
  facet normal -0.338738 -0.940881 0
    outer loop
      vertex 28.9443 45.2169 31
      vertex 29.89 44.8764 42
      vertex 28.9443 45.2169 42
    endloop
  endfacet
  facet normal -0.338738 -0.940881 -0
    outer loop
      vertex 29.89 44.8764 42
      vertex 28.9443 45.2169 31
      vertex 29.89 44.8764 31
    endloop
  endfacet
  facet normal 0.891006 -0.453991 0
    outer loop
      vertex 9.52277 36.8125 42
      vertex 9.97909 37.7081 31
      vertex 9.97909 37.7081 42
    endloop
  endfacet
  facet normal 0.891006 -0.453991 0
    outer loop
      vertex 9.97909 37.7081 31
      vertex 9.52277 36.8125 42
      vertex 9.52277 36.8125 31
    endloop
  endfacet
  facet normal 0.827081 -0.562083 0
    outer loop
      vertex 10.4908 38.5732 42
      vertex 11.0557 39.4046 31
      vertex 11.0557 39.4046 42
    endloop
  endfacet
  facet normal 0.827081 -0.562083 0
    outer loop
      vertex 11.0557 39.4046 31
      vertex 10.4908 38.5732 42
      vertex 10.4908 38.5732 31
    endloop
  endfacet
  facet normal 0.218143 -0.975917 0
    outer loop
      vertex 20.021 45.4973 31
      vertex 21.0019 45.7166 42
      vertex 20.021 45.4973 42
    endloop
  endfacet
  facet normal 0.218143 -0.975917 0
    outer loop
      vertex 21.0019 45.7166 42
      vertex 20.021 45.4973 31
      vertex 21.0019 45.7166 31
    endloop
  endfacet
  facet normal -0.975917 -0.218143 0
    outer loop
      vertex 39.7166 32.9981 31
      vertex 39.4973 33.979 42
      vertex 39.4973 33.979 31
    endloop
  endfacet
  facet normal -0.975917 -0.218143 0
    outer loop
      vertex 39.4973 33.979 42
      vertex 39.7166 32.9981 31
      vertex 39.7166 32.9981 42
    endloop
  endfacet
  facet normal -0.960294 -0.278991 0
    outer loop
      vertex 39.4973 33.979 31
      vertex 39.2169 34.9443 42
      vertex 39.2169 34.9443 31
    endloop
  endfacet
  facet normal -0.960294 -0.278991 0
    outer loop
      vertex 39.2169 34.9443 42
      vertex 39.4973 33.979 31
      vertex 39.4973 33.979 42
    endloop
  endfacet
  facet normal -0.891005 -0.453994 0
    outer loop
      vertex 38.4772 36.8125 31
      vertex 38.0209 37.7081 42
      vertex 38.0209 37.7081 31
    endloop
  endfacet
  facet normal -0.891005 -0.453994 0
    outer loop
      vertex 38.0209 37.7081 42
      vertex 38.4772 36.8125 31
      vertex 38.4772 36.8125 42
    endloop
  endfacet
  facet normal -0.156433 -0.987689 0
    outer loop
      vertex 26.0053 45.8738 31
      vertex 26.9981 45.7166 42
      vertex 26.0053 45.8738 42
    endloop
  endfacet
  facet normal -0.156433 -0.987689 -0
    outer loop
      vertex 26.9981 45.7166 42
      vertex 26.0053 45.8738 31
      vertex 26.9981 45.7166 31
    endloop
  endfacet
  facet normal -0.218143 -0.975917 0
    outer loop
      vertex 26.9981 45.7166 31
      vertex 27.979 45.4973 42
      vertex 26.9981 45.7166 42
    endloop
  endfacet
  facet normal -0.218143 -0.975917 -0
    outer loop
      vertex 27.979 45.4973 42
      vertex 26.9981 45.7166 31
      vertex 27.979 45.4973 31
    endloop
  endfacet
  facet normal -0.0314127 -0.999507 0
    outer loop
      vertex 24 46 31
      vertex 25.0046 45.9684 42
      vertex 24 46 42
    endloop
  endfacet
  facet normal -0.0314127 -0.999507 -0
    outer loop
      vertex 25.0046 45.9684 42
      vertex 24 46 31
      vertex 25.0046 45.9684 31
    endloop
  endfacet
  facet normal 0.987688 -0.156435 0
    outer loop
      vertex 8.12616 32.0053 42
      vertex 8.2834 32.9981 31
      vertex 8.2834 32.9981 42
    endloop
  endfacet
  facet normal 0.987688 -0.156435 0
    outer loop
      vertex 8.2834 32.9981 31
      vertex 8.12616 32.0053 42
      vertex 8.12616 32.0053 31
    endloop
  endfacet
  facet normal 0.940881 -0.338738 0
    outer loop
      vertex 8.7831 34.9443 42
      vertex 9.12358 35.89 31
      vertex 9.12358 35.89 42
    endloop
  endfacet
  facet normal 0.940881 -0.338738 0
    outer loop
      vertex 9.12358 35.89 31
      vertex 8.7831 34.9443 42
      vertex 8.7831 34.9443 31
    endloop
  endfacet
  facet normal 0.917755 -0.397147 0
    outer loop
      vertex 9.12358 35.89 42
      vertex 9.52277 36.8125 31
      vertex 9.52277 36.8125 42
    endloop
  endfacet
  facet normal 0.917755 -0.397147 0
    outer loop
      vertex 9.52277 36.8125 31
      vertex 9.12358 35.89 42
      vertex 9.12358 35.89 31
    endloop
  endfacet
  facet normal 0.975917 -0.218144 0
    outer loop
      vertex 8.2834 32.9981 42
      vertex 8.50267 33.979 31
      vertex 8.50267 33.979 42
    endloop
  endfacet
  facet normal 0.975917 -0.218144 0
    outer loop
      vertex 8.50267 33.979 31
      vertex 8.2834 32.9981 42
      vertex 8.2834 32.9981 31
    endloop
  endfacet
  facet normal 0.999507 -0.0314108 0
    outer loop
      vertex 8 30 42
      vertex 8.03157 31.0046 31
      vertex 8.03157 31.0046 42
    endloop
  endfacet
  facet normal 0.999507 -0.0314108 0
    outer loop
      vertex 8.03157 31.0046 31
      vertex 8 30 42
      vertex 8 30 31
    endloop
  endfacet
  facet normal 0.50904 -0.860743 0
    outer loop
      vertex 15.4268 43.5092 31
      vertex 16.2919 44.0209 42
      vertex 15.4268 43.5092 42
    endloop
  endfacet
  facet normal 0.50904 -0.860743 0
    outer loop
      vertex 16.2919 44.0209 42
      vertex 15.4268 43.5092 31
      vertex 16.2919 44.0209 31
    endloop
  endfacet
  facet normal 0.278991 -0.960294 0
    outer loop
      vertex 19.0557 45.2169 31
      vertex 20.021 45.4973 42
      vertex 19.0557 45.2169 42
    endloop
  endfacet
  facet normal 0.278991 -0.960294 0
    outer loop
      vertex 20.021 45.4973 42
      vertex 19.0557 45.2169 31
      vertex 20.021 45.4973 31
    endloop
  endfacet
  facet normal 0.094109 -0.995562 0
    outer loop
      vertex 21.9947 45.8738 31
      vertex 22.9953 45.9684 42
      vertex 21.9947 45.8738 42
    endloop
  endfacet
  facet normal 0.094109 -0.995562 0
    outer loop
      vertex 22.9953 45.9684 42
      vertex 21.9947 45.8738 31
      vertex 22.9953 45.9684 31
    endloop
  endfacet
  facet normal -0.995562 -0.0941088 0
    outer loop
      vertex 39.9684 31.0046 31
      vertex 39.8738 32.0053 42
      vertex 39.8738 32.0053 31
    endloop
  endfacet
  facet normal -0.995562 -0.0941088 0
    outer loop
      vertex 39.8738 32.0053 42
      vertex 39.9684 31.0046 31
      vertex 39.9684 31.0046 42
    endloop
  endfacet
  facet normal -0.790156 -0.612906 0
    outer loop
      vertex 36.9443 39.4046 31
      vertex 36.3282 40.1988 42
      vertex 36.3282 40.1988 31
    endloop
  endfacet
  facet normal -0.790156 -0.612906 0
    outer loop
      vertex 36.3282 40.1988 42
      vertex 36.9443 39.4046 31
      vertex 36.9443 39.4046 42
    endloop
  endfacet
  facet normal -0.750109 -0.661314 0
    outer loop
      vertex 36.3282 40.1988 31
      vertex 35.6635 40.9528 42
      vertex 35.6635 40.9528 31
    endloop
  endfacet
  facet normal -0.750109 -0.661314 0
    outer loop
      vertex 35.6635 40.9528 42
      vertex 36.3282 40.1988 31
      vertex 36.3282 40.1988 42
    endloop
  endfacet
  facet normal -0.827081 -0.562083 0
    outer loop
      vertex 37.5092 38.5732 31
      vertex 36.9443 39.4046 42
      vertex 36.9443 39.4046 31
    endloop
  endfacet
  facet normal -0.827081 -0.562083 0
    outer loop
      vertex 36.9443 39.4046 42
      vertex 37.5092 38.5732 31
      vertex 37.5092 38.5732 42
    endloop
  endfacet
  facet normal -0.278991 -0.960294 0
    outer loop
      vertex 27.979 45.4973 31
      vertex 28.9443 45.2169 42
      vertex 27.979 45.4973 42
    endloop
  endfacet
  facet normal -0.278991 -0.960294 -0
    outer loop
      vertex 28.9443 45.2169 42
      vertex 27.979 45.4973 31
      vertex 28.9443 45.2169 31
    endloop
  endfacet
  facet normal -0.094109 -0.995562 0
    outer loop
      vertex 25.0046 45.9684 31
      vertex 26.0053 45.8738 42
      vertex 25.0046 45.9684 42
    endloop
  endfacet
  facet normal -0.094109 -0.995562 -0
    outer loop
      vertex 26.0053 45.8738 42
      vertex 25.0046 45.9684 31
      vertex 26.0053 45.8738 31
    endloop
  endfacet
  facet normal -0.453994 -0.891005 0
    outer loop
      vertex 30.8125 44.4772 31
      vertex 31.7081 44.0209 42
      vertex 30.8125 44.4772 42
    endloop
  endfacet
  facet normal -0.453994 -0.891005 -0
    outer loop
      vertex 31.7081 44.0209 42
      vertex 30.8125 44.4772 31
      vertex 31.7081 44.0209 31
    endloop
  endfacet
  facet normal -0.397146 -0.917756 0
    outer loop
      vertex 29.89 44.8764 31
      vertex 30.8125 44.4772 42
      vertex 29.89 44.8764 42
    endloop
  endfacet
  facet normal -0.397146 -0.917756 -0
    outer loop
      vertex 30.8125 44.4772 42
      vertex 29.89 44.8764 31
      vertex 30.8125 44.4772 31
    endloop
  endfacet
  facet normal -0.50904 -0.860743 0
    outer loop
      vertex 31.7081 44.0209 31
      vertex 32.5732 43.5092 42
      vertex 31.7081 44.0209 42
    endloop
  endfacet
  facet normal -0.50904 -0.860743 -0
    outer loop
      vertex 32.5732 43.5092 42
      vertex 31.7081 44.0209 31
      vertex 32.5732 43.5092 31
    endloop
  endfacet
  facet normal -0.661314 -0.750109 0
    outer loop
      vertex 34.1988 42.3282 31
      vertex 34.9528 41.6635 42
      vertex 34.1988 42.3282 42
    endloop
  endfacet
  facet normal -0.661314 -0.750109 -0
    outer loop
      vertex 34.9528 41.6635 42
      vertex 34.1988 42.3282 31
      vertex 34.9528 41.6635 31
    endloop
  endfacet
  facet normal -0.612906 -0.790156 0
    outer loop
      vertex 33.4046 42.9443 31
      vertex 34.1988 42.3282 42
      vertex 33.4046 42.9443 42
    endloop
  endfacet
  facet normal -0.612906 -0.790156 -0
    outer loop
      vertex 34.1988 42.3282 42
      vertex 33.4046 42.9443 31
      vertex 34.1988 42.3282 31
    endloop
  endfacet
  facet normal 0.75011 -0.661313 0
    outer loop
      vertex 11.6718 40.1988 42
      vertex 12.3365 40.9528 31
      vertex 12.3365 40.9528 42
    endloop
  endfacet
  facet normal 0.75011 -0.661313 0
    outer loop
      vertex 12.3365 40.9528 31
      vertex 11.6718 40.1988 42
      vertex 11.6718 40.1988 31
    endloop
  endfacet
  facet normal 0.790155 -0.612907 0
    outer loop
      vertex 11.0557 39.4046 42
      vertex 11.6718 40.1988 31
      vertex 11.6718 40.1988 42
    endloop
  endfacet
  facet normal 0.790155 -0.612907 0
    outer loop
      vertex 11.6718 40.1988 31
      vertex 11.0557 39.4046 42
      vertex 11.0557 39.4046 31
    endloop
  endfacet
  facet normal 0.960294 -0.278991 0
    outer loop
      vertex 8.50267 33.979 42
      vertex 8.7831 34.9443 31
      vertex 8.7831 34.9443 42
    endloop
  endfacet
  facet normal 0.960294 -0.278991 0
    outer loop
      vertex 8.7831 34.9443 31
      vertex 8.50267 33.979 42
      vertex 8.50267 33.979 31
    endloop
  endfacet
  facet normal 0.995562 -0.0941079 0
    outer loop
      vertex 8.03157 31.0046 42
      vertex 8.12616 32.0053 31
      vertex 8.12616 32.0053 42
    endloop
  endfacet
  facet normal 0.995562 -0.0941079 0
    outer loop
      vertex 8.12616 32.0053 31
      vertex 8.03157 31.0046 42
      vertex 8.03157 31.0046 31
    endloop
  endfacet
  facet normal 0.612906 -0.790156 0
    outer loop
      vertex 13.8012 42.3282 31
      vertex 14.5954 42.9443 42
      vertex 13.8012 42.3282 42
    endloop
  endfacet
  facet normal 0.612906 -0.790156 0
    outer loop
      vertex 14.5954 42.9443 42
      vertex 13.8012 42.3282 31
      vertex 14.5954 42.9443 31
    endloop
  endfacet
  facet normal 0.453993 -0.891005 0
    outer loop
      vertex 16.2919 44.0209 31
      vertex 17.1875 44.4772 42
      vertex 16.2919 44.0209 42
    endloop
  endfacet
  facet normal 0.453993 -0.891005 0
    outer loop
      vertex 17.1875 44.4772 42
      vertex 16.2919 44.0209 31
      vertex 17.1875 44.4772 31
    endloop
  endfacet
  facet normal 0.562084 -0.82708 0
    outer loop
      vertex 14.5954 42.9443 31
      vertex 15.4268 43.5092 42
      vertex 14.5954 42.9443 42
    endloop
  endfacet
  facet normal 0.562084 -0.82708 0
    outer loop
      vertex 15.4268 43.5092 42
      vertex 14.5954 42.9443 31
      vertex 15.4268 43.5092 31
    endloop
  endfacet
  facet normal 0.661312 -0.750111 0
    outer loop
      vertex 13.0472 41.6635 31
      vertex 13.8012 42.3282 42
      vertex 13.0472 41.6635 42
    endloop
  endfacet
  facet normal 0.661312 -0.750111 0
    outer loop
      vertex 13.8012 42.3282 42
      vertex 13.0472 41.6635 31
      vertex 13.8012 42.3282 31
    endloop
  endfacet
  facet normal 0.397146 -0.917755 0
    outer loop
      vertex 17.1875 44.4772 31
      vertex 18.11 44.8764 42
      vertex 17.1875 44.4772 42
    endloop
  endfacet
  facet normal 0.397146 -0.917755 0
    outer loop
      vertex 18.11 44.8764 42
      vertex 17.1875 44.4772 31
      vertex 18.11 44.8764 31
    endloop
  endfacet
  facet normal 0.156434 -0.987688 0
    outer loop
      vertex 21.0019 45.7166 31
      vertex 21.9947 45.8738 42
      vertex 21.0019 45.7166 42
    endloop
  endfacet
  facet normal 0.156434 -0.987688 0
    outer loop
      vertex 21.9947 45.8738 42
      vertex 21.0019 45.7166 31
      vertex 21.9947 45.8738 31
    endloop
  endfacet
  facet normal -0.940881 -0.338738 0
    outer loop
      vertex 39.2169 34.9443 31
      vertex 38.8764 35.89 42
      vertex 38.8764 35.89 31
    endloop
  endfacet
  facet normal -0.940881 -0.338738 0
    outer loop
      vertex 38.8764 35.89 42
      vertex 39.2169 34.9443 31
      vertex 39.2169 34.9443 42
    endloop
  endfacet
  facet normal -0.860743 -0.50904 0
    outer loop
      vertex 38.0209 37.7081 31
      vertex 37.5092 38.5732 42
      vertex 37.5092 38.5732 31
    endloop
  endfacet
  facet normal -0.860743 -0.50904 0
    outer loop
      vertex 37.5092 38.5732 42
      vertex 38.0209 37.7081 31
      vertex 38.0209 37.7081 42
    endloop
  endfacet
  facet normal -0.562083 -0.827081 0
    outer loop
      vertex 32.5732 43.5092 31
      vertex 33.4046 42.9443 42
      vertex 32.5732 43.5092 42
    endloop
  endfacet
  facet normal -0.562083 -0.827081 -0
    outer loop
      vertex 33.4046 42.9443 42
      vertex 32.5732 43.5092 31
      vertex 33.4046 42.9443 31
    endloop
  endfacet
  facet normal 0.860742 -0.509042 0
    outer loop
      vertex 9.97909 37.7081 42
      vertex 10.4908 38.5732 31
      vertex 10.4908 38.5732 42
    endloop
  endfacet
  facet normal 0.860742 -0.509042 0
    outer loop
      vertex 10.4908 38.5732 31
      vertex 9.97909 37.7081 42
      vertex 9.97909 37.7081 31
    endloop
  endfacet
  facet normal 0.338738 -0.940881 0
    outer loop
      vertex 18.11 44.8764 31
      vertex 19.0557 45.2169 42
      vertex 18.11 44.8764 42
    endloop
  endfacet
  facet normal 0.338738 -0.940881 0
    outer loop
      vertex 19.0557 45.2169 42
      vertex 18.11 44.8764 31
      vertex 19.0557 45.2169 31
    endloop
  endfacet
  facet normal -0 0 1
    outer loop
      vertex 6 58 31
      vertex 42 48 31
      vertex 42 58 31
    endloop
  endfacet
  facet normal 0 0 1
    outer loop
      vertex 42 48 31
      vertex 6 58 31
      vertex 6 48 31
    endloop
  endfacet
  facet normal 0 1 -0
    outer loop
      vertex 42 48 31
      vertex 6 48 42
      vertex 42 48 42
    endloop
  endfacet
  facet normal 0 1 0
    outer loop
      vertex 6 48 42
      vertex 42 48 31
      vertex 6 48 31
    endloop
  endfacet
endsolid OpenSCAD_Model
